<svg width="576" height="159" viewBox="0 0 576 159" fill="none" xmlns="http://www.w3.org/2000/svg">
<path d="M8.58188 112.5V111.54L11.7499 110.58C12.9019 110.26 13.7339 109.652 14.2459 108.756C14.7579 107.796 15.0139 106.676 15.0139 105.396V59.22C14.3099 57.684 13.7339 56.532 13.2859 55.764C12.9019 54.996 12.4539 54.356 11.9419 53.844C11.4299 53.268 10.7259 52.564 9.82988 51.732L8.19788 50.1V49.14H25.1899L57.0619 92.628V56.436C57.0619 55.156 56.8379 54.004 56.3899 52.98C56.0059 51.956 55.1739 51.284 53.8939 50.964L50.7259 50.1V49.14H64.4539V50.1L61.8619 50.964C60.7099 51.348 60.0059 52.02 59.7499 52.98C59.4939 53.94 59.3659 55.06 59.3659 56.34V112.788H53.9899L17.3179 62.388V105.396C17.3179 106.676 17.5099 107.764 17.8939 108.66C18.2779 109.556 19.0779 110.196 20.2939 110.58L23.1739 111.54V112.5H8.58188ZM84.3366 113.94C81.8406 113.94 79.5366 113.46 77.4246 112.5C75.3766 111.54 73.7446 110.004 72.5286 107.892C71.3766 105.716 70.8326 102.868 70.8966 99.348L71.1846 74.676C71.1846 73.204 70.9286 72.148 70.4166 71.508C69.9046 70.868 69.1046 70.42 68.0166 70.164L66.8646 69.78V68.82L84.0486 65.46L85.0086 66.42L84.5286 80.052V103.188C84.5286 105.236 85.1046 106.74 86.2566 107.7C87.4726 108.66 88.9766 109.14 90.7686 109.14C92.5606 109.14 94.1606 108.884 95.5686 108.372C96.9766 107.86 98.3846 107.092 99.7926 106.068L100.177 74.772C100.177 73.3 99.9526 72.276 99.5046 71.7C99.0566 71.06 98.2246 70.612 97.0086 70.356L96.0486 70.068V69.108L112.849 65.46L113.809 66.42L113.521 80.052V106.068C113.521 107.476 113.713 108.564 114.097 109.332C114.481 110.1 115.313 110.74 116.593 111.252L117.553 111.54V112.5L100.753 113.46L99.8886 107.796C97.7766 109.524 95.4726 110.996 92.9766 112.212C90.5446 113.364 87.6646 113.94 84.3366 113.94ZM139.769 113.94C135.673 113.94 132.473 112.916 130.169 110.868C127.929 108.82 126.809 105.556 126.809 101.076V68.244H120.185V67.284L122.489 66.9C124.473 66.452 126.169 65.812 127.577 64.98C129.049 64.148 130.489 63.028 131.897 61.62L139.769 52.884H140.729L140.441 66.324H151.193V68.244H140.345V102.804C140.345 105.044 140.825 106.74 141.785 107.892C142.809 109.044 144.089 109.62 145.625 109.62C146.969 109.62 148.153 109.3 149.177 108.66C150.201 107.956 151.225 107.028 152.249 105.876L153.209 106.836C151.929 109.012 150.169 110.74 147.929 112.02C145.689 113.3 142.969 113.94 139.769 113.94ZM156.317 112.5V111.54L157.757 111.156C159.037 110.772 159.901 110.196 160.349 109.428C160.861 108.66 161.117 107.668 161.117 106.452V76.404C161.117 74.996 160.861 73.972 160.349 73.332C159.901 72.628 159.037 72.148 157.757 71.892L156.317 71.508V70.548L172.829 64.98L173.789 65.94L174.653 74.196V74.964C175.549 73.172 176.701 71.54 178.109 70.068C179.581 68.532 181.181 67.284 182.909 66.324C184.701 65.364 186.461 64.884 188.189 64.884C190.621 64.884 192.477 65.556 193.757 66.9C195.037 68.244 195.677 69.94 195.677 71.988C195.677 74.164 195.037 75.86 193.757 77.076C192.541 78.228 191.069 78.804 189.341 78.804C186.653 78.804 184.285 77.46 182.237 74.772L182.045 74.58C181.405 73.684 180.669 73.204 179.837 73.14C179.005 73.012 178.237 73.396 177.533 74.292C176.893 74.868 176.349 75.572 175.901 76.404C175.517 77.172 175.133 78.068 174.749 79.092V105.876C174.749 108.436 175.869 110.036 178.109 110.676L181.181 111.54V112.5H156.317ZM210.312 59.892C208.136 59.892 206.28 59.22 204.744 57.876C203.272 56.468 202.536 54.708 202.536 52.596C202.536 50.42 203.272 48.66 204.744 47.316C206.28 45.972 208.136 45.3 210.312 45.3C212.488 45.3 214.312 45.972 215.784 47.316C217.256 48.66 217.992 50.42 217.992 52.596C217.992 54.708 217.256 56.468 215.784 57.876C214.312 59.22 212.488 59.892 210.312 59.892ZM198.984 112.5V111.54L200.328 111.156C201.608 110.772 202.472 110.196 202.92 109.428C203.432 108.66 203.688 107.636 203.688 106.356V76.308C203.688 74.964 203.432 73.972 202.92 73.332C202.472 72.628 201.608 72.148 200.328 71.892L198.984 71.604V70.644L216.552 64.98L217.512 65.94L217.224 79.572V106.452C217.224 107.732 217.448 108.756 217.896 109.524C218.408 110.292 219.272 110.868 220.488 111.252L221.448 111.54V112.5H198.984Z" fill="black"/>
<path d="M363.579 93.8287C357.622 97.4496 350.78 99.354 343.809 99.3315C337.969 99.2852 332.195 98.0908 326.816 95.8162C322.671 101.669 320.452 108.668 320.469 115.84V134.156C320.47 134.837 320.332 135.512 320.062 136.137C319.792 136.762 319.396 137.325 318.899 137.791C318.402 138.257 317.815 138.616 317.173 138.846C316.532 139.075 315.85 139.17 315.171 139.125C313.894 139.014 312.706 138.424 311.845 137.474C310.985 136.523 310.515 135.283 310.531 134.001V126.275L286.545 102.288C282.979 103.618 279.208 104.314 275.402 104.344C270.163 104.357 265.022 102.923 260.546 100.201C247.012 91.9778 239.727 73.0531 241.136 49.5571C241.207 48.3415 241.722 47.1943 242.583 46.3333C243.444 45.4723 244.591 44.9574 245.807 44.8865C269.303 43.5014 288.228 50.762 296.426 64.2956C299.647 69.6003 301.053 75.8095 300.432 81.9844C300.394 82.4628 300.217 82.9198 299.924 83.3001C299.632 83.6804 299.235 83.9678 298.782 84.1274C298.33 84.2871 297.84 84.3122 297.374 84.1997C296.907 84.0872 296.483 83.842 296.153 83.4936L284.228 71.0097C283.288 70.1172 282.038 69.627 280.742 69.6436C279.446 69.6602 278.208 70.1822 277.292 71.0985C276.376 72.0147 275.854 73.2526 275.837 74.5483C275.821 75.844 276.311 77.0948 277.203 78.0342L310.668 112.35C310.705 111.865 310.749 111.381 310.798 110.903C311.885 101.69 315.95 93.0845 322.375 86.3942L353.797 53.1905C354.729 52.259 355.253 50.9952 355.254 49.6773C355.254 48.3593 354.731 47.0951 353.8 46.1628C352.868 45.2305 351.604 44.7064 350.286 44.7058C348.969 44.7052 347.704 45.2282 346.772 46.1597L316.338 78.3448C316.034 78.6675 315.648 78.9026 315.222 79.0259C314.796 79.1492 314.344 79.156 313.914 79.0457C313.485 78.9354 313.092 78.712 312.778 78.3986C312.464 78.0853 312.239 77.6936 312.127 77.2641C309.183 66.4074 310.482 55.6003 316.102 46.3212C327.195 28.0113 353.008 18.2105 385.156 20.0986C386.371 20.1696 387.518 20.6845 388.379 21.5455C389.24 22.4065 389.755 23.5537 389.826 24.7692C391.69 56.9233 381.889 82.7359 363.579 93.8287Z" fill="#8BB277"/>
<path d="M409.543 112.5V111.54L411.271 110.868C412.551 110.356 413.415 109.716 413.863 108.948C414.375 108.18 414.631 107.156 414.631 105.876V55.764C414.631 54.42 414.375 53.364 413.863 52.596C413.415 51.828 412.551 51.22 411.271 50.772L409.543 50.1V49.14H437.095C444.903 49.14 450.535 50.58 453.991 53.46C457.447 56.276 459.175 59.86 459.175 64.212C459.175 67.476 457.895 70.452 455.335 73.14C452.839 75.764 448.519 77.62 442.375 78.708C449.415 79.476 454.567 81.332 457.831 84.276C461.095 87.156 462.727 90.676 462.727 94.836C462.727 96.884 462.279 98.964 461.383 101.076C460.487 103.124 458.951 105.012 456.775 106.74C454.663 108.468 451.751 109.876 448.039 110.964C444.327 111.988 439.623 112.5 433.927 112.5H409.543ZM428.839 78.612H432.967C437.255 78.612 440.327 77.62 442.183 75.636C444.103 73.652 445.063 70.196 445.063 65.268C445.063 60.148 444.199 56.5 442.471 54.324C440.743 52.148 437.927 51.06 434.023 51.06H428.839V78.612ZM428.839 110.58H433.639C438.439 110.58 441.991 109.3 444.295 106.74C446.663 104.18 447.847 100.18 447.847 94.74C447.847 89.62 446.727 85.972 444.487 83.796C442.247 81.62 438.567 80.532 433.447 80.532H428.839V110.58ZM491.677 113.94C486.813 113.94 482.589 112.948 479.005 110.964C475.421 108.916 472.637 106.036 470.653 102.324C468.733 98.612 467.773 94.26 467.773 89.268C467.773 84.276 468.797 79.956 470.845 76.308C472.957 72.66 475.805 69.844 479.389 67.86C483.037 65.876 487.133 64.884 491.677 64.884C496.221 64.884 500.285 65.876 503.869 67.86C507.453 69.78 510.269 72.564 512.317 76.212C514.429 79.86 515.485 84.212 515.485 89.268C515.485 94.324 514.493 98.708 512.509 102.42C510.589 106.068 507.837 108.916 504.253 110.964C500.733 112.948 496.541 113.94 491.677 113.94ZM491.677 112.02C493.917 112.02 495.709 111.38 497.053 110.1C498.397 108.82 499.357 106.548 499.933 103.284C500.573 100.02 500.893 95.412 500.893 89.46C500.893 83.444 500.573 78.804 499.933 75.54C499.357 72.276 498.397 70.004 497.053 68.724C495.709 67.444 493.917 66.804 491.677 66.804C489.437 66.804 487.613 67.444 486.205 68.724C484.861 70.004 483.869 72.276 483.229 75.54C482.653 78.804 482.365 83.444 482.365 89.46C482.365 95.412 482.653 100.02 483.229 103.284C483.869 106.548 484.861 108.82 486.205 110.1C487.613 111.38 489.437 112.02 491.677 112.02ZM517.254 112.5V111.54L519.75 110.964C521.222 110.644 522.406 110.164 523.302 109.524C524.262 108.82 525.158 107.86 525.99 106.644L536.358 91.764L523.302 71.028C522.662 70.068 522.086 69.332 521.574 68.82C521.062 68.308 520.262 67.924 519.174 67.668L517.83 67.284V66.324H542.214V67.284L540.582 67.668C538.342 68.372 537.894 69.78 539.238 71.892L547.11 84.084L555.654 72.276C556.358 71.188 556.678 70.292 556.614 69.588C556.614 68.82 556.006 68.276 554.79 67.956L552.39 67.284V66.324H566.406V67.284L564.102 67.86C562.694 68.244 561.606 68.756 560.838 69.396C560.07 69.972 559.238 70.9 558.342 72.18L548.262 85.812L561.414 106.26C563.014 108.756 565.158 110.356 567.846 111.06L569.382 111.54V112.5H542.886V111.54L544.518 111.156C545.606 110.9 546.278 110.388 546.534 109.62C546.854 108.788 546.694 107.86 546.054 106.836L537.606 93.684L528.486 106.932C527.718 107.956 527.462 108.852 527.718 109.62C528.038 110.324 528.71 110.804 529.734 111.06L531.654 111.54V112.5H517.254Z" fill="black"/>
</svg>
